<?xml version="1.0" encoding="utf-8"?>
<svg version="1.1" xmlns="http://www.w3.org/2000/svg" xmlns:xlink="http://www.w3.org/1999/xlink" x="0px" y="0px"
	 viewBox="0 0 96 96" style="enable-background:new 0 0 96 96;" xml:space="preserve">
<g>
	<path d="M65.5,23c0,0.5-0.2,1-0.6,1.4L41.3,48l23.6,23.6c0.4,0.4,0.6,0.9,0.6,1.4c0,0.5-0.2,1-0.6,1.4
		l-3,3C61.5,77.8,61,78,60.5,78c-0.5,0-1-0.2-1.4-0.6l-28-28c-0.4-0.4-0.6-0.9-0.6-1.4s0.2-1,0.6-1.4l28-28c0.4-0.4,0.9-0.6,1.4-0.6
		c0.5,0,1,0.2,1.4,0.6l3,3C65.3,22,65.5,22.5,65.5,23z"/>
</g>
</svg>
