<?xml version="1.0" encoding="utf-8"?>
<svg version="1.1" xmlns="http://www.w3.org/2000/svg" xmlns:xlink="http://www.w3.org/1999/xlink" x="0px" y="0px"
	 viewBox="0 0 96 96" style="enable-background:new 0 0 96 96;" xml:space="preserve">
<g>
	<path d="M48,62.6c3.2,0,5.8-2.6,5.8-5.8c0-3.2-2.6-5.8-5.8-5.8s-5.8,2.6-5.8,5.8
		C42.2,60,44.8,62.6,48,62.6z M65.5,36.3h-2.9v-5.8c0-8.1-6.5-14.6-14.6-14.6c-8.1,0-14.6,6.5-14.6,14.6H39c0-5,4.1-9,9-9s9,4.1,9,9
		v5.8H30.5c-3.2,0-5.8,2.6-5.8,5.8v29.2c0,3.2,2.6,5.8,5.8,5.8h35c3.2,0,5.8-2.6,5.8-5.8V42.2C71.3,39,68.7,36.3,65.5,36.3z
		 M65.5,71.3h-35V42.2h35V71.3z"/>
</g>
</svg>
