<?xml version="1.0" encoding="utf-8"?>
<!-- Generator: Adobe Illustrator 19.0.0, SVG Export Plug-In . SVG Version: 6.00 Build 0)  -->
<svg version="1.1" id="Layer_1" xmlns="http://www.w3.org/2000/svg" xmlns:xlink="http://www.w3.org/1999/xlink" x="0px" y="0px"
	 viewBox="0 0 96 96" style="enable-background:new 0 0 96 96;" xml:space="preserve">
<g id="XMLID_1_">
	<path id="XMLID_5_" d="M65.5,48c0,0.5-0.2,1-0.6,1.4l-28,28C36.5,77.8,36,78,35.5,78c-0.5,0-1-0.2-1.4-0.6l-3-3
		c-0.4-0.4-0.6-0.9-0.6-1.4c0-0.5,0.2-1,0.6-1.4L54.7,48L31.1,24.4c-0.4-0.4-0.6-0.9-0.6-1.4s0.2-1,0.6-1.4l3-3
		c0.4-0.4,0.9-0.6,1.4-0.6c0.5,0,1,0.2,1.4,0.6l28,28C65.3,47,65.5,47.5,65.5,48z"/>
</g>
</svg>
